<?xml version="1.0" encoding="utf-8"?>
<!-- Generator: Adobe Illustrator 16.0.4, SVG Export Plug-In . SVG Version: 6.00 Build 0)  -->
<!DOCTYPE svg PUBLIC "-//W3C//DTD SVG 1.1//EN" "http://www.w3.org/Graphics/SVG/1.1/DTD/svg11.dtd">
<svg version="1.1" id="Layer_1" xmlns="http://www.w3.org/2000/svg" xmlns:xlink="http://www.w3.org/1999/xlink" x="0px" y="0px"
	 width="24px" height="24px" viewBox="0 0 24 24" enable-background="new 0 0 24 24" xml:space="preserve">
<g>
	<path d="M18,13v-2H9.23l3.692-4H10l-5,5l5,5h2.922L9.23,13H18z"/>
	<g>
		<path d="M0,12C0,5.384,5.384,0,12,0c6.617,0,12,5.384,12,12s-5.383,12-12,12C5.384,24,0,18.616,0,12z M1.846,12
			C1.846,17.6,6.4,22.154,12,22.154S22.154,17.6,22.154,12C22.154,6.401,17.6,1.846,12,1.846S1.846,6.401,1.846,12z"/>
	</g>
</g>
</svg>
