<?xml version="1.0" encoding="utf-8"?>
<!-- Generator: Adobe Illustrator 16.2.1, SVG Export Plug-In . SVG Version: 6.00 Build 0)  -->
<!DOCTYPE svg PUBLIC "-//W3C//DTD SVG 1.1//EN" "http://www.w3.org/Graphics/SVG/1.1/DTD/svg11.dtd">
<svg version="1.1" id="Layer_1" xmlns="http://www.w3.org/2000/svg" xmlns:xlink="http://www.w3.org/1999/xlink" x="0px" y="0px"
	 width="24px" height="24px" viewBox="0 0 24 24" enable-background="new 0 0 24 24" xml:space="preserve">
<g>
	<path d="M14.77,13l-3.692,4H14l5-5l-5-5h-2.923l3.692,4H6v2H14.77z"/>
	<g>
		<path d="M12,24C5.383,24,0,18.616,0,12S5.383,0,12,0c6.616,0,12,5.384,12,12S18.616,24,12,24z M12,1.846
			C6.401,1.846,1.846,6.401,1.846,12S6.401,22.154,12,22.154S22.154,17.599,22.154,12S17.599,1.846,12,1.846z"/>
	</g>
</g>
</svg>
